<svg xmlns="http://www.w3.org/2000/svg" viewBox="0 -0.550000011920929 238.3000030517578 61.89999771118164" data-asc="0.851" width="238.3000030517578" height="61.89999771118164"><defs/><g fill="#000000"><g transform="translate(0, 0)"><path d="M40.70 57.65Q40.25 57.65 40.53 56.97Q40.80 56.30 41.05 55.75Q41.50 54.85 41.50 52.95Q41.50 51.30 40.90 49.40Q40.30 47.50 38.55 45.95Q36.15 43.75 33.15 42.45Q30.15 41.15 26.88 40.35Q23.60 39.55 20.40 38.95Q18.45 41.65 16.23 43.80Q14 45.95 11.50 47.10Q10.10 47.75 8.80 48.07Q7.50 48.40 6.35 48.40Q3.55 48.40 1.78 46.92Q0 45.45 0 43.45Q0 41.55 1.73 39.72Q3.45 37.90 7.45 36.70Q9.05 36.25 11 36.02Q12.95 35.80 15.05 35.80Q16.35 35.80 17.63 35.88Q18.90 35.95 20 36.20Q21.45 34 22.70 31.62Q23.95 29.25 25.30 26.45Q21.35 26.55 18.45 25.27Q15.55 24.00 13.98 21.85Q12.40 19.70 12.40 17.25Q12.40 15.25 13.55 13.32Q14.70 11.40 17.18 9.82Q19.65 8.25 23.50 7.35Q23.75 7.25 23.98 7.25Q24.20 7.25 24.40 7.25Q25.15 7.25 25.15 7.55Q25.15 8.05 23.55 8.25Q20.95 8.55 18.98 10.10Q17 11.65 15.93 13.80Q14.85 15.95 14.85 18.15Q14.85 20.05 15.75 21.70Q16.65 23.35 18.60 24.37Q20.55 25.40 23.65 25.40Q24.75 25.40 26 25.25Q26.20 24.85 26.68 23.62Q27.15 22.40 27.75 20.85Q28.35 19.30 28.93 17.85Q29.50 16.40 29.88 15.42Q30.25 14.45 30.25 14.45Q32.55 8.70 34.98 5.42Q37.40 2.15 39.68 0.80Q41.95-0.55 43.75-0.55Q45.70-0.55 46.98 0.60Q48.25 1.75 48.35 3.20Q48.40 3.65 48.40 3.85Q48.40 4.05 48.40 4.35Q48.40 7.30 47.23 10.25Q46.05 13.20 43.98 15.85Q41.90 18.50 39.23 20.65Q36.55 22.80 33.52 24.25Q30.50 25.70 27.40 26.25Q26.65 27.75 26.08 28.92Q25.50 30.10 24.80 31.45Q24.10 32.80 22.95 34.90Q22.60 35.55 22.43 35.82Q22.25 36.10 21.90 36.65Q24.40 37.25 27.35 38.32Q30.30 39.40 33.18 40.88Q36.05 42.35 38.30 44.10Q41.10 46.25 42.28 48.95Q43.45 51.65 43.45 53.70Q43.45 55.15 43 55.90Q42.35 57 41.70 57.30Q41.05 57.65 40.70 57.65M28.10 24.90Q31.50 24.15 34.75 22.17Q38 20.20 40.60 17.37Q43.20 14.55 44.75 11.22Q46.30 7.90 46.30 4.45Q46.30 3.60 45.85 3.05Q45.40 2.50 44.55 2.50Q43.40 2.50 41.60 3.77Q39.80 5.05 37.50 8.02Q35.20 11.00 32.55 16.20Q32.55 16.20 31.88 17.50Q31.20 18.80 30.18 20.77Q29.15 22.75 28.10 24.90M5.65 46.95Q6.75 46.95 8.03 46.65Q9.30 46.35 10.70 45.70Q14.90 43.65 18.45 38.60Q17.30 38.35 16.05 38.22Q14.80 38.10 13.50 38.10Q12.15 38.10 10.73 38.25Q9.30 38.40 7.95 38.80Q4.60 39.70 2.83 41.10Q1.05 42.50 1.05 43.95Q1.05 45.20 2.30 46.07Q3.55 46.95 5.65 46.95ZM49.65 42.70Q49.10 42.75 48.40 42.45Q47.70 42.15 47.18 41.35Q46.65 40.55 46.65 39.10Q46.65 37.90 47.10 36.20Q46.50 37.15 45.55 38.52Q44.60 39.90 43.50 40.95Q42.55 41.85 41.70 42.25Q40.85 42.65 40.15 42.65Q38.85 42.65 38.05 41.47Q37.25 40.30 37.25 38.40Q37.25 36.40 38.25 33.85Q39.25 31.30 41.50 28.55Q42.95 26.80 45.03 25.72Q47.10 24.65 49.10 24.65Q50.25 24.65 51.30 25.02Q52.35 25.40 53.15 26.25Q53.50 26.60 53.50 27.05Q53.50 27.35 53.25 27.55Q53 27.75 52.60 27.65Q52.05 25.90 50.25 25.90Q49.40 25.90 48.30 26.45Q46.60 27.35 44.78 29.40Q42.95 31.45 41.60 33.65Q41.40 33.95 40.98 34.80Q40.55 35.65 40.15 36.70Q39.75 37.75 39.60 38.75Q39.55 39.05 39.55 39.17Q39.55 39.30 39.55 39.55Q39.55 41.20 40.80 41.20Q42.30 41.20 44.20 39Q45.50 37.40 46.55 35.65Q47.60 33.90 48.70 31.90Q49.45 30.55 50.10 29.65Q50.75 28.75 51.95 28.75Q52.50 28.75 53.05 28.90Q53.60 29.05 54.20 28.95Q53.80 29.35 53.13 30.45Q52.45 31.55 51.70 32.95Q50.95 34.35 50.35 35.80Q49.75 37.25 49.50 38.30Q49.45 38.60 49.38 39.15Q49.30 39.70 49.30 39.95Q49.30 41.35 50.10 41.35Q50.90 41.35 51.83 40.40Q52.75 39.45 53.65 38.05Q54.55 36.65 55.30 35.22Q56.05 33.80 56.50 32.90Q56.70 32.40 57.10 32.40Q57.35 32.40 57.35 32.75Q57.35 32.90 57.20 33.30Q56.60 34.55 55.75 36.13Q54.90 37.70 53.90 39.17Q52.90 40.65 51.83 41.63Q50.75 42.60 49.65 42.70ZM58.05 42.55Q57.50 42.55 56.73 42.30Q55.95 42.05 55.38 41.38Q54.80 40.70 54.80 39.35Q54.80 38.05 55.43 36.82Q56.05 35.60 56.60 34.45Q56.45 34.45 56.28 34.35Q56.10 34.25 56.10 34.05Q56.10 33.85 56.20 33.65Q56.40 33.25 56.65 32.80Q56.90 32.35 57.10 31.85Q57.85 30.30 58.60 28.87Q59.35 27.45 59.90 26.35Q60.45 25.25 61.80 25.25L64.90 25.25Q64.05 25.90 63.38 26.67Q62.70 27.45 61.70 29.50Q61.70 29.50 61.35 30.20Q61.00 30.90 60.48 31.97Q59.95 33.05 59.43 34.15Q58.90 35.25 58.55 36Q57.90 37.40 57.70 38.22Q57.50 39.05 57.50 39.75Q57.50 41.40 58.60 41.40Q59.80 41.40 61.50 39.45Q62.90 37.80 64.25 35.50Q65.60 33.20 66.83 30.75Q68.05 28.30 69 26.35Q69.55 25.25 70.95 25.25L73.70 25.25Q72.95 25.85 72.45 26.37Q71.95 26.90 71.48 27.77Q71 28.65 70.20 30.25Q69.55 31.60 68.83 33.13Q68.10 34.65 67.55 36Q67 37.35 66.85 38.20Q66.80 38.70 66.75 38.95Q66.70 39.20 66.70 39.50Q66.70 40.45 67.03 40.85Q67.35 41.25 67.80 41.25Q69 41.25 70.23 39.90Q71.45 38.55 72.58 36.60Q73.70 34.65 74.50 32.90Q74.80 32.35 75.05 32.35Q75.35 32.35 75.35 32.70Q75.35 32.95 75.15 33.30Q74.60 34.50 73.80 36.05Q73 37.60 72 39.10Q71 40.60 69.80 41.57Q68.60 42.55 67.20 42.55Q65.95 42.55 65.15 41.63Q64.35 40.70 64.35 39Q64.35 37.65 64.85 36.10Q64 37.60 62.90 39.10Q61.80 40.60 60.55 41.57Q59.30 42.55 58.05 42.55ZM80.35 42.60Q79.40 42.60 78.45 41.82Q77.50 41.05 77.50 39.30Q77.50 37.95 78.15 36.20Q78.75 34.50 79.78 32.90Q80.80 31.30 81.25 30.30Q81.40 29.90 81.40 29.60Q81.40 28.70 80.28 28.30Q79.15 27.90 77.35 27.85L76.75 29.50Q76.20 31.10 75.23 33.25Q74.25 35.40 73.08 37.40Q71.90 39.40 70.65 40.60Q70.55 40.70 70.40 40.70Q70.20 40.70 70.13 40.45Q70.05 40.20 70.35 39.85Q72.30 37.25 73.85 34.07Q75.40 30.90 76.48 27.60Q77.55 24.30 78.05 21.50Q78.20 20.70 78.60 20.32Q79.00 19.95 79.45 19.95Q80.10 19.95 80.65 20.57Q81.20 21.20 81.20 22.35Q81.20 22.55 81.18 22.80Q81.15 23.05 81.10 23.30Q80.90 24.35 79.93 25.27Q78.95 26.20 78.35 26.65Q78.85 26.70 79.40 26.72Q79.95 26.75 80.60 26.75Q82.95 26.75 85.25 26.45Q85.35 26.75 85.35 26.90Q85.35 27.55 84.98 28.55Q84.60 29.55 84.20 30.35Q84.00 30.80 83.40 31.97Q82.80 33.15 82.10 34.63Q81.40 36.10 80.93 37.52Q80.45 38.95 80.45 39.95Q80.45 41.25 81.45 41.25Q82.20 41.25 83.10 40.27Q84.00 39.30 84.88 37.88Q85.75 36.45 86.48 35.07Q87.20 33.70 87.60 32.90Q87.80 32.40 88.15 32.40Q88.35 32.40 88.35 32.75Q88.35 32.95 88.20 33.35Q87.65 34.50 86.90 35.95Q86.15 37.40 85.23 38.80Q84.30 40.20 83.23 41.22Q82.15 42.25 80.90 42.55Q80.75 42.60 80.35 42.60ZM91 42.75Q89.15 42.75 87.68 41.55Q86.20 40.35 86.20 37.90Q86.20 35.65 87.30 33.07Q88.40 30.50 90.10 28.55Q91.55 26.85 93.35 25.75Q95.15 24.65 96.75 24.65Q97.85 24.65 98.65 25.25Q99.50 25.90 99.50 27.10Q99.50 28.35 98.55 29.85Q97.60 31.35 95.85 32.65Q95.10 33.20 93.95 33.70Q92.80 34.20 91.65 34.52Q90.50 34.85 89.75 34.85Q89.50 35.45 89.28 36.45Q89.05 37.45 89.05 38.50Q89.05 39.75 89.55 40.75Q90.05 41.75 91.40 41.75Q93.05 41.75 94.40 40.80Q95.75 39.85 96.80 38.42Q97.85 37 98.58 35.55Q99.30 34.10 99.75 33.10Q100.05 32.40 100.55 32.40Q100.80 32.40 100.80 32.65Q100.80 32.85 100.65 33.15Q99.95 34.65 99.15 36.32Q98.35 38 97.25 39.47Q96.15 40.95 94.63 41.85Q93.10 42.75 91 42.75M90.10 33.95Q90.80 33.95 92.45 33.42Q94.10 32.90 95.45 31.75Q96.75 30.60 97.45 29.22Q98.15 27.85 98.15 26.90Q98.15 25.80 97.35 25.80Q96.75 25.80 95.70 26.60Q94.65 27.40 93.10 29.30Q92.15 30.50 91.30 31.90Q90.45 33.30 90.10 33.95ZM95.10 42.95Q96.90 39.30 98.58 35.72Q100.25 32.15 102.00 28.90Q103.00 27.10 103.68 26.37Q104.35 25.65 105.50 25.65Q105.90 25.65 106.35 25.77Q106.80 25.90 107.25 25.90Q107.55 25.90 107.70 25.85Q107.00 26.25 105.90 27.82Q104.80 29.40 103.65 31.45Q102.50 33.50 101.60 35.30Q102.55 34.15 103.58 33Q104.60 31.85 105.85 30.80Q107.05 29.75 108.73 28.62Q110.40 27.50 112.00 26.75Q113.60 26.00 114.55 26.00Q114.90 26.00 115.05 26.05Q115.05 26.05 114.50 27.02Q113.95 28.00 113.13 29.57Q112.30 31.15 111.45 32.92Q110.60 34.70 109.93 36.32Q109.25 37.95 109.05 39.05Q108.90 39.70 108.90 40.25Q108.90 41.05 109.20 41.30Q109.50 41.55 109.85 41.55Q110.80 41.55 111.85 40.52Q112.90 39.50 113.88 38Q114.85 36.50 115.63 35.07Q116.40 33.65 116.75 32.90Q116.95 32.50 117.05 32.42Q117.15 32.35 117.35 32.35Q117.65 32.35 117.65 32.75Q117.65 33 117.50 33.30Q116.90 34.45 116.08 36.05Q115.25 37.65 114.20 39.17Q113.15 40.70 111.90 41.72Q110.65 42.75 109.20 42.75Q108.20 42.75 107.13 42.05Q106.05 41.35 106.05 39.45Q106.05 38.90 106.15 38.27Q106.25 37.65 106.50 36.90Q106.90 35.90 107.45 34.75Q108.00 33.60 109.25 31.60Q109.60 31.05 109.68 30.75Q109.75 30.45 109.75 30.25Q109.75 29.65 109.20 29.65Q108.75 29.65 107.88 30.15Q107.00 30.65 105.70 31.90Q104.45 33.10 102.73 35.30Q101.00 37.50 98.75 41.80Q98.40 42.45 97.98 42.50Q97.55 42.55 96.80 42.60Q96.30 42.65 95.85 42.67Q95.40 42.70 95.10 42.95ZM131 61.35Q129.30 61.35 128.10 60.90Q126.20 60.20 125.33 59.27Q124.45 58.35 124.45 57.30Q124.45 55.95 125.78 54.47Q127.10 53 129.45 51.63Q131.80 50.25 134.85 49.22Q137.90 48.20 141.35 47.70Q142.90 47.45 144.78 47.30Q146.65 47.15 148.58 47.02Q150.50 46.90 152.05 46.90Q153.90 43.75 155.08 40.95Q156.25 38.15 157.15 34.50L157.35 33.70Q156.40 34.60 154.68 35.88Q152.95 37.15 150.68 38.42Q148.40 39.70 145.83 40.55Q143.25 41.40 140.55 41.40Q138.45 41.40 136.50 40.75Q134.40 40 132.73 38.22Q131.05 36.45 130.08 33.82Q129.10 31.20 129.10 28.00Q129.10 25.65 129.70 22.97Q130.30 20.30 131.65 17.50Q130.10 15.90 129.23 13.95Q128.35 12.00 128.35 9.95Q128.35 8.15 129.10 6.37Q129.85 4.60 131.45 2.95Q131.90 2.45 132.30 2.45Q132.50 2.45 132.50 2.65Q132.50 2.95 132.15 3.35Q131 4.75 130.45 6.30Q129.90 7.85 129.90 9.40Q129.90 11.15 130.58 12.85Q131.25 14.55 132.50 16.00Q132.75 15.50 133.03 15.00Q133.30 14.50 133.60 14.00Q136 10.10 139.48 7.30Q142.95 4.50 146.90 2.97Q150.85 1.45 154.60 1.45Q155.25 1.45 155.88 1.50Q156.50 1.55 157.15 1.65Q162 2.40 164.40 4.90Q166.80 7.40 166.80 10.50Q166.80 12.65 165.63 14.80Q164.45 16.95 162.08 18.75Q159.70 20.55 156.18 21.65Q152.65 22.75 148 22.85Q144.35 22.90 140.80 21.92Q137.25 20.95 134.80 19.35Q133.55 22.00 132.98 24.52Q132.40 27.05 132.40 29.25Q132.40 32.95 133.95 35.60Q135.50 38.25 138.25 39.15Q139.05 39.40 139.88 39.50Q140.70 39.60 141.50 39.60Q143.75 39.60 146.03 38.92Q148.30 38.25 150.25 37.15Q152.20 36.05 153.58 34.82Q154.95 33.60 155.40 32.55Q156.55 29.95 157.68 28.92Q158.80 27.90 159.70 27.90Q160.45 27.90 160.98 28.57Q161.50 29.25 161.35 30.40Q160.85 34.55 159.08 38.45Q157.30 42.35 154.50 46.90Q157.90 46.95 160.63 47.27Q163.35 47.60 165.55 48.15Q166.15 48.30 166.38 48.52Q166.60 48.75 166.60 48.90Q166.60 49.25 166 49.25Q165.70 49.25 165.15 49.10Q164 48.80 162.10 48.57Q160.20 48.35 158.03 48.25Q155.85 48.15 153.85 48.15Q151.75 51.15 148.88 53.57Q146 56 142.80 57.75Q139.60 59.50 136.53 60.42Q133.45 61.35 131 61.35M146.65 21.35Q147.20 21.35 147.75 21.32Q148.30 21.30 148.85 21.25Q153.90 20.75 157.43 18.92Q160.95 17.10 162.78 14.60Q164.60 12.10 164.60 9.70Q164.60 7.35 162.83 5.52Q161.05 3.70 157.40 3.15Q156.90 3.05 156.58 3.05Q156.25 3.05 155.70 3.05Q152.45 3.05 148.98 4.60Q145.50 6.15 142.38 8.92Q139.25 11.70 137 15.35Q136.45 16.30 136.15 16.80Q135.85 17.30 135.45 18.00Q137.50 19.55 140.43 20.45Q143.35 21.35 146.65 21.35M130.95 59.80Q132.90 59.80 135.55 59.08Q138.20 58.35 141.08 56.88Q143.95 55.40 146.60 53.25Q149.25 51.10 151.25 48.25Q148.85 48.30 146.53 48.47Q144.20 48.65 141.90 49.05Q139.45 49.45 136.83 50.42Q134.20 51.40 131.98 52.70Q129.75 54 128.38 55.32Q127.00 56.65 127.00 57.75Q127.00 58.40 127.58 58.90Q128.15 59.40 129.40 59.65Q130.10 59.80 130.95 59.80ZM170.35 22.25Q169.60 22.25 169.13 21.72Q168.65 21.20 168.65 20.45Q168.65 19.50 169.40 18.80Q170.15 18.10 171.05 18.10Q171.85 18.10 172.35 18.60Q172.85 19.10 172.85 19.80Q172.85 20.75 172.10 21.50Q171.35 22.25 170.35 22.25M166.30 42.55Q164.45 42.55 163.70 41.47Q162.95 40.40 162.95 39Q162.95 38.25 163.13 37.47Q163.30 36.70 163.55 36.05L166.90 27.50Q167.05 27.10 167.05 26.80Q167.05 26.30 166.80 25.92Q166.55 25.55 166.45 25.40L169.20 25.30Q169.95 25.25 170.28 25.47Q170.60 25.70 170.60 26.00Q170.60 26.30 170.25 27.10L166.10 36.85Q166.10 36.85 165.83 37.47Q165.55 38.10 165.50 38.30Q165.35 39.05 165.30 39.25Q165.25 39.45 165.25 39.50Q165.25 39.55 165.25 39.90Q165.25 40.55 165.58 41Q165.90 41.45 166.70 41.45Q167.20 41.45 167.85 41.15Q168.50 40.85 168.80 40.55Q170.05 39.25 171.28 37.13Q172.50 35 173.55 32.90Q173.75 32.40 174.05 32.40Q174.30 32.40 174.30 32.75Q174.30 32.95 174.15 33.35Q173.65 34.40 172.90 35.95Q172.15 37.50 171.13 39.02Q170.10 40.55 168.90 41.55Q167.70 42.55 166.30 42.55ZM177.15 42.60Q175.00 42.60 173.95 41.50Q172.90 40.40 172.90 38.75Q172.90 37.95 173.10 37.20Q173.40 36.05 173.98 34.63Q174.55 33.20 175.30 31.70Q173.55 35.10 172.13 37.42Q170.70 39.75 169.95 40.45Q169.80 40.60 169.65 40.60Q169.40 40.60 169.40 40.35Q169.40 40.15 169.55 39.95Q170.60 38.55 171.98 36.10Q173.35 33.65 174.90 30.62Q176.45 27.60 178.05 24.50Q179.65 21.40 181.18 18.65Q182.70 15.90 183.95 14.00Q184.85 12.65 185.65 12.07Q186.45 11.50 187.30 11.50L187.55 11.50Q188.00 11.50 188.58 11.65Q189.15 11.80 189.65 11.70Q189.00 12.40 187.68 14.17Q186.35 15.95 184.73 18.32Q183.10 20.70 181.48 23.32Q179.85 25.95 178.60 28.45Q177.40 30.85 176.48 33.57Q175.55 36.30 175.55 38.35Q175.55 39.55 175.95 40.35Q176.35 41.15 177.30 41.35Q178.90 41.70 181.60 38.50Q182.65 37.25 183.70 35.52Q184.75 33.80 185.35 32.30Q186.20 30.30 186.20 28.65Q186.20 27.40 185.58 26.65Q184.95 25.90 183.50 26.05L183.30 26.05Q182.40 26.05 182.40 25.55Q182.40 25.35 182.68 25.15Q182.95 24.95 183.45 24.95Q183.60 24.95 183.78 24.97Q183.95 25.00 184.15 25.05Q186.40 25.40 187.38 26.87Q188.35 28.35 188.35 30.25Q188.35 30.65 188.30 31.12Q188.25 31.60 188.15 32.15Q187.75 34.20 186.60 36.32Q185.45 38.45 183.78 40.05Q182.10 41.65 180.05 42.20Q179.20 42.40 178.48 42.50Q177.75 42.60 177.15 42.60ZM192.05 42.75Q189.60 42.75 188.58 41.47Q187.55 40.20 187.55 38.80Q187.55 37.65 188.13 36.70Q188.70 35.75 189.50 35.70Q190.50 33.75 191.68 31.45Q192.85 29.15 193.85 27.00Q194.55 25.55 195.63 24.20Q196.70 22.85 198.00 22.65L198.50 22.65Q198.90 22.65 199.23 22.70Q199.55 22.75 199.90 22.90Q200.45 23.15 200.45 23.65Q200.45 23.95 200.10 23.95Q199.95 23.95 199.70 23.80Q199.10 23.55 198.65 23.55Q198.35 23.55 198.10 23.70Q197.15 24.20 196.78 25.10Q196.40 26.00 196.40 27.00Q196.40 27.80 196.58 28.62Q196.75 29.45 197.00 30.10Q197.55 31.50 198.18 32.85Q198.80 34.20 198.80 35.75Q198.80 37.25 197.80 38.92Q196.80 40.60 195.25 41.60L195.60 41.65Q195.85 41.70 195.95 41.70Q196.05 41.70 196.10 41.70Q197.25 41.70 198.28 41.02Q199.30 40.35 200.10 39.35Q200.90 38.35 201.93 36.55Q202.95 34.75 203.90 32.75Q204.05 32.50 204.25 32.50Q204.50 32.50 204.63 32.67Q204.75 32.85 204.65 33.10Q204.00 34.50 203.18 36.13Q202.35 37.75 201.30 39.22Q200.25 40.70 198.88 41.63Q197.50 42.55 195.80 42.55Q195.40 42.55 194.95 42.50Q194.50 42.45 194.05 42.30Q193.55 42.50 193.03 42.63Q192.50 42.75 192.05 42.75M193.55 41.25Q194.40 40.55 195.08 39.20Q195.75 37.85 195.75 35.65Q195.75 33.70 195.35 31.50Q194.95 29.30 194.95 27.60Q194.95 27.25 194.98 26.97Q195.00 26.70 195.05 26.45Q194.40 27.80 193.55 29.57Q192.70 31.35 191.85 33Q191.00 34.65 190.40 35.80Q190.40 35.80 190.68 35.82Q190.95 35.85 191.20 36.17Q191.45 36.50 191.40 37.45Q191.35 38.70 191.98 39.77Q192.60 40.85 193.55 41.25M191.65 41.95Q191.95 41.95 192.20 41.88Q192.45 41.80 192.65 41.75Q191.90 41.20 191.33 40.27Q190.75 39.35 190.65 37.90Q189.75 38.85 189.75 39.95Q189.75 40.75 190.25 41.35Q190.75 41.95 191.65 41.95ZM206.15 42.55Q204.25 42.55 203.35 41.27Q202.45 40 202.45 38.15Q202.45 35.90 203.50 33.45Q204.50 31.15 206.05 29.25Q207.60 27.35 209.40 26.17Q211.20 25.00 212.90 25.00Q214.80 25.00 215.70 26.25Q216.60 27.50 216.60 29.40Q216.60 31.70 215.55 34.10Q214.95 35.45 213.85 37.07Q212.75 38.70 211.35 40.05Q211.65 40.60 212.20 40.97Q212.75 41.35 213.70 41.35Q214.90 41.35 215.98 40.35Q217.05 39.35 217.95 37.92Q218.85 36.50 219.55 35.05Q220.25 33.60 220.70 32.70Q220.85 32.40 221.20 32.40Q221.40 32.40 221.50 32.57Q221.60 32.75 221.45 33.10Q221.15 33.85 220.45 35.32Q219.75 36.80 218.75 38.38Q217.75 39.95 216.45 41.05Q215.15 42.15 213.55 42.15Q212.45 42.15 211.65 41.77Q210.85 41.40 210.35 40.85Q209.30 41.65 208.25 42.10Q207.20 42.55 206.15 42.55M206.90 41.45Q208.25 41.45 209.80 40.15Q209.40 39.55 209.20 38.90Q209.00 38.25 209.00 37.70Q209.00 36.80 209.43 36.15Q209.85 35.50 210.75 35.50Q211.40 35.50 211.83 35.97Q212.25 36.45 212.25 37.05Q212.25 37.20 212.23 37.32Q212.20 37.45 212.15 37.60Q213.00 36.45 213.75 34.90Q215.40 31.35 215.40 29.05Q215.40 27.90 214.95 27.25Q214.50 26.60 213.60 26.60Q212.55 26.60 211.33 27.50Q210.10 28.40 208.98 29.90Q207.85 31.40 207.00 33.25Q206.20 34.95 205.73 36.52Q205.25 38.10 205.25 39.25Q205.25 40.25 205.65 40.85Q206.05 41.45 206.90 41.45ZM215.75 42.95Q217.55 39.30 219.23 35.72Q220.90 32.15 222.65 28.90Q223.65 27.10 224.33 26.37Q225.00 25.65 226.15 25.65Q226.55 25.65 227.00 25.77Q227.45 25.90 227.90 25.90Q228.20 25.90 228.35 25.85Q227.65 26.25 226.55 27.82Q225.45 29.40 224.30 31.45Q223.15 33.50 222.25 35.30Q223.20 34.15 224.23 33Q225.25 31.85 226.50 30.80Q227.70 29.75 229.38 28.62Q231.05 27.50 232.65 26.75Q234.25 26.00 235.20 26.00Q235.55 26.00 235.70 26.05Q235.70 26.05 235.15 27.02Q234.60 28.00 233.78 29.57Q232.95 31.15 232.10 32.92Q231.25 34.70 230.58 36.32Q229.90 37.95 229.70 39.05Q229.55 39.70 229.55 40.25Q229.55 41.05 229.85 41.30Q230.15 41.55 230.50 41.55Q231.45 41.55 232.50 40.52Q233.55 39.50 234.53 38Q235.50 36.50 236.28 35.07Q237.05 33.65 237.40 32.90Q237.60 32.50 237.70 32.42Q237.80 32.35 238.00 32.35Q238.30 32.35 238.30 32.75Q238.30 33 238.15 33.30Q237.55 34.45 236.73 36.05Q235.90 37.65 234.85 39.17Q233.80 40.70 232.55 41.72Q231.30 42.75 229.85 42.75Q228.85 42.75 227.78 42.05Q226.70 41.35 226.70 39.45Q226.70 38.90 226.80 38.27Q226.90 37.65 227.15 36.90Q227.55 35.90 228.10 34.75Q228.65 33.60 229.90 31.60Q230.25 31.05 230.33 30.75Q230.40 30.45 230.40 30.25Q230.40 29.65 229.85 29.65Q229.40 29.65 228.53 30.15Q227.65 30.65 226.35 31.90Q225.10 33.10 223.38 35.30Q221.65 37.50 219.40 41.80Q219.05 42.45 218.63 42.50Q218.20 42.55 217.45 42.60Q216.95 42.65 216.50 42.67Q216.05 42.70 215.75 42.95Z"/></g></g></svg>